<svg xmlns="http://www.w3.org/2000/svg" width="138" height="42" viewBox="0 0 138 42" fill="none"><g id="Logotipo" clip-path="url(#clip0_1_28417)"><g id="Group 17532"><path id="Vector" d="M46.305 15.7381C45.729 14.3847 44.9464 13.1972 43.9667 12.1727C42.9838 11.1451 41.8506 10.3337 40.5734 9.74466C39.2932 9.15252 37.9409 8.86115 36.5041 8.86115C34.651 8.86115 32.8949 9.3405 31.2358 10.2929C29.5799 11.2516 28.237 12.6239 27.2103 14.4066C26.1867 16.1924 25.6733 18.3511 25.6733 20.8825C25.6733 23.0506 26.1429 24.9899 27.0851 26.7068C28.0273 28.4237 29.3765 29.7803 31.1325 30.7798C32.8886 31.7792 34.9609 32.2805 37.3524 32.2805C38.7579 32.2805 40.1196 32.0486 41.4405 31.5849C42.7615 31.1213 43.7851 30.5761 44.5176 29.9589C45.3064 29.3417 45.6977 28.6524 45.6977 27.8911C45.6977 27.3303 45.4942 26.8384 45.0873 26.4155C44.6804 25.9925 44.167 25.7826 43.5472 25.7826C43.0964 25.7826 42.6206 25.9079 42.1167 26.1648C41.8068 26.334 41.4624 26.5376 41.0837 26.7726C40.7018 27.0139 40.2072 27.2175 39.5874 27.3867C38.9676 27.5559 38.1381 27.6373 37.0988 27.6373C35.9751 27.6373 34.9139 27.3616 33.9185 26.8165C32.9199 26.2682 32.1061 25.463 31.4737 24.4103C31.1012 23.7963 30.8446 23.0976 30.6912 22.3237H44.6021C45.2751 22.3237 45.8667 22.1138 46.3738 21.6909C46.8809 21.2679 47.147 20.7196 47.1752 20.046C47.1752 18.5265 46.8872 17.0916 46.3112 15.7444L46.305 15.7381ZM41.7723 18.1004H30.7256C30.7945 17.7495 30.879 17.4268 30.9792 17.1292C31.2891 16.23 31.7116 15.5125 32.2438 14.9768C32.7759 14.4442 33.4082 14.0651 34.1407 13.8395C34.8732 13.6139 35.6589 13.5011 36.501 13.5011C37.343 13.5011 38.1944 13.6891 38.9707 14.0714C39.7439 14.4505 40.3888 14.9643 40.9084 15.6128C41.428 16.2582 41.7129 16.9882 41.7723 17.8059V18.1036V18.1004Z" fill="#1F1F20"></path><path id="Vector_2" d="M89.2287 9.57861C88.6527 9.09925 87.9422 8.86115 87.1001 8.86115C86.3958 8.86115 85.6946 8.94574 84.9934 9.11492C84.2891 9.2841 83.6286 9.54414 83.012 9.89504C82.3922 10.2459 81.8381 10.6814 81.3467 11.2015C80.9992 11.5712 80.6987 11.9816 80.4389 12.4265V11.8532C80.4389 11.1232 80.201 10.5091 79.7221 10.0172C79.2431 9.52535 78.639 9.27784 77.9096 9.27784C77.1803 9.27784 76.573 9.52535 76.0972 10.0172C75.6183 10.5091 75.3804 11.1201 75.3804 11.8532V29.279C75.3804 30.0122 75.6183 30.6231 76.0972 31.115C76.5761 31.6069 77.1803 31.8544 77.9096 31.8544C78.639 31.8544 79.2431 31.61 79.7221 31.115C80.201 30.6231 80.4389 30.0122 80.4389 29.279V19.2784C80.4389 18.2665 80.5704 17.3861 80.8396 16.6404C81.1056 15.8948 81.4562 15.2682 81.8945 14.7638C82.3296 14.2562 82.8085 13.8865 83.3281 13.6453C83.8478 13.4072 84.3611 13.2881 84.8682 13.2881C85.4286 13.2881 85.9294 13.3852 86.3645 13.5826C86.7996 13.78 87.2848 13.8771 87.8201 13.8771C88.3835 13.8771 88.9032 13.6735 89.379 13.2662C89.8579 12.8589 90.0958 12.1915 90.0958 11.261C90.0958 10.6156 89.8078 10.0517 89.2318 9.57234L89.2287 9.57861Z" fill="#1F1F20"></path><path id="Vector_3" d="M111.193 14.4932C110.166 12.7325 108.789 11.3571 107.058 10.3577C105.33 9.35822 103.399 8.85693 101.261 8.85693C99.1227 8.85693 97.1913 9.35822 95.4665 10.3577C93.7386 11.3571 92.3613 12.7325 91.3345 14.4932C90.3078 16.2509 89.7944 18.2842 89.7944 20.5901C89.7944 22.896 90.3078 24.9293 91.3345 26.6869C92.3581 28.4477 93.7386 29.8168 95.4665 30.8006C97.1913 31.7875 99.1258 32.2794 101.261 32.2794C103.395 32.2794 105.33 31.7875 107.058 30.8006C108.786 29.8168 110.163 28.4477 111.193 26.6869C112.217 24.9293 112.73 22.896 112.73 20.5901C112.73 18.2842 112.217 16.2509 111.193 14.4932ZM106.807 24.2808C106.232 25.3366 105.458 26.1606 104.488 26.7527C103.518 27.3449 102.441 27.6363 101.261 27.6363C100.081 27.6363 99.0068 27.3417 98.0365 26.7527C97.0661 26.1606 96.2929 25.3366 95.7169 24.2808C95.1409 23.2281 94.853 21.9968 94.853 20.5901C94.853 19.1834 95.1409 17.9082 95.7169 16.8555C96.2929 15.7997 97.0661 14.9757 98.0365 14.3836C99.0068 13.7914 100.081 13.5001 101.261 13.5001C102.441 13.5001 103.518 13.7946 104.488 14.3836C105.458 14.9757 106.232 15.7997 106.807 16.8555C107.383 17.9082 107.671 19.1552 107.671 20.5901C107.671 22.025 107.383 23.2281 106.807 24.2808Z" fill="#1F1F20"></path><path id="Vector_4" d="M21.3954 14.4941C20.3687 12.7365 18.9914 11.358 17.2635 10.3585C15.5356 9.36225 13.601 8.86096 11.4662 8.86096C9.33135 8.86096 7.39684 9.36225 5.66893 10.3585C3.94102 11.358 2.56369 12.7365 1.53696 14.4941C0.641706 16.0324 0.134602 17.7807 0.0250422 19.7388C0.00939082 20.0176 0 20.3028 0 20.591V29.3258C0 30.7232 1.13316 31.8573 2.52926 31.8573C3.92536 31.8573 5.05852 30.7232 5.05852 29.3258V20.591C5.05852 19.1561 5.34651 17.9123 5.92248 16.8564C6.49845 15.8006 7.27163 14.9798 8.24201 14.3876C9.2124 13.7955 10.2861 13.501 11.4662 13.501C12.6463 13.501 13.7231 13.7955 14.6904 14.3876C15.6608 14.9798 16.4339 15.8006 17.0099 16.8564C17.5859 17.9123 17.8739 19.1561 17.8739 20.591V29.3258C17.8739 30.7232 19.007 31.8573 20.4031 31.8573C21.7992 31.8573 22.9324 30.7232 22.9324 29.3258V20.591C22.9324 20.3028 22.923 20.0176 22.9073 19.7388C22.7947 17.7807 22.2907 16.0324 21.3923 14.4941H21.3954Z" fill="#1F1F20"></path><path id="Vector_5" d="M138.047 19.7392C137.935 17.781 137.431 16.0328 136.532 14.4945C135.506 12.7369 134.128 11.3583 132.4 10.3589C130.672 9.36261 128.741 8.86133 126.603 8.86133C124.468 8.86133 122.534 9.36261 120.806 10.3589C119.078 11.3583 117.701 12.7369 116.674 14.4945C115.775 16.0328 115.272 17.781 115.159 19.7392C115.143 20.018 115.134 20.3031 115.134 20.5914V29.3262C115.134 30.7235 116.267 31.8577 117.663 31.8577C119.059 31.8577 120.192 30.7235 120.192 29.3262V20.5914C120.192 19.1564 120.48 17.9126 121.056 16.8568C121.632 15.801 122.405 14.9801 123.376 14.388C124.346 13.7958 125.42 13.5013 126.6 13.5013C127.78 13.5013 128.857 13.7958 129.824 14.388C130.795 14.9801 131.568 15.801 132.144 16.8568C132.72 17.9126 133.008 19.1564 133.008 20.5914V29.3262C133.008 30.7235 134.141 31.8577 135.537 31.8577C136.933 31.8577 138.066 30.7235 138.066 29.3262V20.5914C138.066 20.3031 138.057 20.018 138.041 19.7392H138.047Z" fill="#1F1F20"></path><g id="Group"><path id="Vector_6" d="M72.9886 19.6976H69.0006C68.5373 15.9537 65.3413 13.0462 61.4786 13.0462C57.6158 13.0462 54.4229 15.9537 53.9597 19.6976H49.9717C50.4444 13.7605 55.4246 9.07355 61.4786 9.07355C67.5325 9.07355 72.5128 13.7605 72.9886 19.6945V19.6976Z" fill="#FE8E04"></path><path id="Vector_7" d="M55.5525 25.3492L54.4381 29.7825C52.1561 28.0217 50.5472 25.4276 50.0776 22.4575H54.1251C54.3912 23.529 54.8857 24.5127 55.5525 25.3492Z" fill="#FE8E04"></path><path id="Vector_8" d="M72.8819 22.4575C72.0054 27.9653 67.2255 32.1886 61.4783 32.1886C59.1337 32.1886 56.9488 31.4868 55.127 30.2806L59.3434 27.912C60.0227 28.1157 60.7364 28.2191 61.4783 28.2191C65.0311 28.2191 68.0143 25.7628 68.8313 22.4606H72.8819V22.4575Z" fill="#FE8E04"></path></g></g></g><defs><clipPath id="clip0_1_28417"><rect width="138" height="42" fill="white"></rect></clipPath></defs></svg>